<svg width="298" height="121" viewBox="0 0 298 121" fill="none" xmlns="http://www.w3.org/2000/svg">
<path d="M0.015499 118.912V0.101658H50.9344C64.1733 0.101658 74.6965 3.6094 82.5041 10.6249C90.3116 17.6404 94.2154 26.5795 94.2154 37.4422C94.2154 46.3813 91.4432 54.0191 85.8987 60.3557C80.4673 66.6922 72.7729 70.9355 62.8154 73.0854L93.3668 118.912H75.5452L46.6911 74.7827H15.2912V118.912H0.015499ZM15.2912 60.3557H50.9344C60.0998 60.3557 67.0587 58.3189 71.8111 54.2454C76.5635 50.0587 78.9397 44.4577 78.9397 37.4422C78.9397 30.4267 76.5635 24.8822 71.8111 20.8087C67.0587 16.622 60.0998 14.5287 50.9344 14.5287H15.2912V60.3557ZM118.663 108.05C110.29 99.6763 106.103 89.1531 106.103 76.48C106.103 63.8068 110.29 53.2836 118.663 44.9103C127.036 36.5369 137.56 32.3503 150.233 32.3503C162.906 32.3503 173.429 36.5369 181.802 44.9103C190.176 53.2836 194.362 63.8068 194.362 76.48C194.362 89.1531 190.176 99.6763 181.802 108.05C173.429 116.423 162.906 120.61 150.233 120.61C137.56 120.61 127.036 116.423 118.663 108.05ZM128.338 53.9059C122.567 59.7899 119.681 67.3146 119.681 76.48C119.681 85.6454 122.567 93.17 128.338 99.054C134.108 104.938 141.407 107.88 150.233 107.88C159.059 107.88 166.357 104.938 172.128 99.054C177.899 93.17 180.784 85.6454 180.784 76.48C180.784 67.3146 177.899 59.7899 172.128 53.9059C166.357 48.022 159.059 45.08 150.233 45.08C141.407 45.08 134.108 48.022 128.338 53.9059ZM212.966 118.912V0.101658H226.545V47.6259H226.715L228.412 45.08C230.335 42.138 233.787 39.3092 238.765 36.5935C243.744 33.7647 249.854 32.3503 257.096 32.3503C268.411 32.3503 278.029 36.5935 285.95 45.08C293.871 53.4533 297.831 63.92 297.831 76.48C297.831 89.04 293.871 99.5632 285.95 108.05C278.029 116.423 268.411 120.61 257.096 120.61C249.854 120.61 243.687 119.252 238.596 116.536C233.617 113.707 230.222 110.765 228.412 107.71L226.715 105.334H226.545V118.912H212.966ZM234.692 53.9059C229.26 59.7899 226.545 67.3146 226.545 76.48C226.545 85.6454 229.26 93.17 234.692 99.054C240.236 104.938 247.139 107.88 255.399 107.88C263.659 107.88 270.505 104.938 275.936 99.054C281.481 93.17 284.253 85.6454 284.253 76.48C284.253 67.3146 281.481 59.7899 275.936 53.9059C270.505 48.022 263.659 45.08 255.399 45.08C247.139 45.08 240.236 48.022 234.692 53.9059Z" fill="#0D0D0D"/>
</svg>
