<svg width="354" height="168" viewBox="0 0 354 168" fill="none" xmlns="http://www.w3.org/2000/svg">
<path d="M258.73 144.192V24.032H314.519C324.704 24.032 332.943 27.0646 339.237 33.1298C345.646 39.0806 348.85 46.6336 348.85 55.7886C348.85 64.0282 346.104 70.78 340.611 76.0442C338.093 78.333 335.404 80.164 332.543 81.5372V82.3955C336.434 83.5399 339.981 85.3709 343.185 87.8886C350.395 93.4961 354 101.106 354 110.719C354 120.446 350.452 128.457 343.357 134.751C336.262 141.045 326.649 144.192 314.519 144.192H258.73ZM269.888 77.2458H314.519C321.728 77.2458 327.393 75.3004 331.513 71.4095C335.633 67.5186 337.692 62.3116 337.692 55.7886C337.692 49.2656 335.633 44.0587 331.513 40.1678C327.393 36.2769 321.728 34.3314 314.519 34.3314H269.888V77.2458ZM269.888 133.893H314.519C323.788 133.893 330.826 131.833 335.633 127.713C340.439 123.479 342.842 117.814 342.842 110.719C342.842 103.624 340.439 98.0164 335.633 93.8966C330.826 89.6624 323.788 87.5453 314.519 87.5453H269.888V133.893Z" fill="#1F1F1F"/>
<path d="M0 144.192V24.032H49.7807C62.8266 24.032 73.0689 27.4651 80.5074 34.3314C88.0603 41.0833 91.8368 49.9523 91.8368 60.9384C91.8368 70.3223 89.033 78.2757 83.4255 84.7987C77.9325 91.3217 70.1507 95.3843 60.0801 96.9864L90.9785 144.192H78.1042L48.0641 97.8447H11.1577V144.192H0ZM11.1577 87.5453H49.7807C59.9657 87.5453 67.633 85.2565 72.7828 80.679C78.0469 75.987 80.679 69.4068 80.679 60.9384C80.679 52.4699 78.0469 45.9469 72.7828 41.3694C67.633 36.6774 59.9657 34.3314 49.7807 34.3314H11.1577V87.5453Z" fill="#1F1F1F"/>
<path fill-rule="evenodd" clip-rule="evenodd" d="M172.033 20.5989C175.136 20.5989 178.149 20.7852 181.072 21.1578V26.6069V31.5625V136.662V144.192V147.066C178.149 147.439 175.136 147.625 172.033 147.625C154.41 147.625 139.704 141.617 127.917 129.601C116.13 117.585 110.236 102.422 110.236 84.1121C110.236 65.802 116.13 50.6389 127.917 38.6229C139.704 26.6069 154.41 20.5989 172.033 20.5989ZM169.914 137.292V30.9327C156.106 31.3848 144.682 36.2941 135.642 45.6609C126.143 55.5026 121.394 68.3197 121.394 84.1121C121.394 99.9046 126.143 112.722 135.642 122.563C144.682 131.93 156.106 136.84 169.914 137.292ZM208.424 122.563C203.682 127.477 198.284 131.164 192.23 133.624V144.598C201.219 141.692 209.192 136.693 216.149 129.601C227.936 117.585 233.83 102.422 233.83 84.1121C233.83 65.802 227.936 50.6389 216.149 38.6229C209.192 31.5312 201.219 26.5322 192.23 23.6259V34.5998C198.284 37.0603 203.682 40.7473 208.424 45.6609C217.923 55.5026 222.672 68.3197 222.672 84.1121C222.672 99.9046 217.923 112.722 208.424 122.563Z" fill="#1F1F1F"/>
<circle cx="156.611" cy="62.2258" r="5.57887" fill="#1F1F1F"/>
<circle cx="156.611" cy="105.14" r="5.57887" fill="#1F1F1F"/>
<line x1="157.04" y1="62.655" x2="157.04" y2="105.569" stroke="#1F1F1F" stroke-width="5.14972"/>
</svg>
